<?xml version="1.0" encoding="UTF-8" standalone="no"?>
<!-- Created with Inkscape (http://www.inkscape.org/) -->

<svg
   xmlns:dc="http://purl.org/dc/elements/1.1/"
   xmlns:cc="http://creativecommons.org/ns#"
   xmlns:rdf="http://www.w3.org/1999/02/22-rdf-syntax-ns#"
   xmlns:svg="http://www.w3.org/2000/svg"
   xmlns="http://www.w3.org/2000/svg"
   xmlns:sodipodi="http://sodipodi.sourceforge.net/DTD/sodipodi-0.dtd"
   xmlns:inkscape="http://www.inkscape.org/namespaces/inkscape"
   width="210mm"
   height="297mm"
   viewBox="0 0 210 297"
   version="1.1"
   id="svg8"
   inkscape:version="0.92.1 r15371"
   sodipodi:docname="group.svg">
  <defs
     id="defs2" />
  <sodipodi:namedview
     id="base"
     pagecolor="#ffffff"
     bordercolor="#666666"
     borderopacity="1.0"
     inkscape:pageopacity="0.0"
     inkscape:pageshadow="2"
     inkscape:zoom="1.979899"
     inkscape:cx="349.04713"
     inkscape:cy="183.3141"
     inkscape:document-units="mm"
     inkscape:current-layer="layer1"
     showgrid="false"
     inkscape:window-width="1920"
     inkscape:window-height="1017"
     inkscape:window-x="3832"
     inkscape:window-y="1553"
     inkscape:window-maximized="1" />
  <metadata
     id="metadata5">
    <rdf:RDF>
      <cc:Work
         rdf:about="">
        <dc:format>image/svg+xml</dc:format>
        <dc:type
           rdf:resource="http://purl.org/dc/dcmitype/StillImage" />
        <dc:title></dc:title>
      </cc:Work>
    </rdf:RDF>
  </metadata>
  <g
     inkscape:label="Layer 1"
     inkscape:groupmode="layer"
     id="layer1">
    <path
       id="polygon0-28"
       d="m 137.19047,276.55093 -1.35209,-15.24412 -34.98953,-3.01897 -34.982215,3.10278 -1.315581,15.24733 z"
       style="fill:#ffffff;stroke:#000000;stroke-width:0.03622132;stroke-miterlimit:4;stroke-dasharray:0.21732789,0.03622132;stroke-opacity:1;stroke-dashoffset:0"
       inkscape:connector-curvature="0" />
    <path
       id="polygon0-7"
       d="m 149.93535,38.924971 -13.82713,-21.909926 -22.98568,41.911427 -0.64532,1.112508 -0.59863,1.141587 -0.59265,1.151666 -0.55052,1.170044 -0.54376,1.177556 -0.50559,1.19044 -0.49857,1.196794 -0.46281,1.206706 -0.45593,1.212399 -0.42128,1.220367 -0.4145,1.22554 -0.38051,1.231873 -0.37416,1.236572 -0.33975,1.241321 -0.3325,1.245626 -0.31119,1.251079 -0.28675,1.254546 -0.26727,1.256523 -0.24642,1.257805 -0.22513,1.257859 -0.20385,1.256284 -0.18301,1.252951 -0.16308,1.247676 -0.14405,1.240182 -0.12729,1.230364 -0.11416,1.218368 -0.106,1.204566 -0.10735,1.190067 -0.12276,1.177308 -0.16171,1.169629 -0.23782,1.171814 -0.35062,1.197705 -1.79679,160.563653 8.76382,0.26015 8.78765,0.25706 17.49376,0.78187 6.58675,-80.7373 0.18392,-1.16134 0.23511,-1.15442 0.28718,-1.14508 0.33883,-1.1334 0.39094,-1.11916 0.44212,-1.10228 0.49276,-1.08298 0.54295,-1.06106 0.59247,-1.03645 0.64116,-1.00944 0.68909,-0.98002 0.73625,-0.94801 0.78264,-0.91331 0.82837,-0.87562 0.87337,-0.83468 0.91798,-0.78965 18.85967,-16.73128 -4.84922,-65.495497 -0.37372,-1.390343 -0.35242,-1.385076 -0.33839,-1.379819 -0.33023,-1.374832 -0.32659,-1.36999 -0.32707,-1.365414 -0.33023,-1.360986 -0.33612,-1.356599 -0.34427,-1.352242 -0.35424,-1.347772 -0.36557,-1.343135 -0.37825,-1.338241 -0.39228,-1.33316 -0.4077,-1.327646 -0.42354,-1.32189 -0.44031,-1.315651 -0.45815,-1.308915 -0.47649,-1.301712 -0.49522,-1.294056 -0.51446,-1.285921 -0.53402,-1.277146 -0.55398,-1.267896 -0.57416,-1.257919 -0.59464,-1.247106 -0.61526,-1.235557 -0.63608,-1.222933 -0.65697,-1.209189 -0.67799,-1.194053 -0.6991,-1.177287 -0.72025,-1.158371 -0.74164,-1.136734 z"
       style="fill:#ffffff;stroke:#000000;stroke-width:0.03649281;stroke-miterlimit:4;stroke-dasharray:0.21895683,0.03649281;stroke-opacity:1;stroke-dashoffset:0"
       inkscape:connector-curvature="0" />
    <path
       style="fill:#ffffff;stroke:#000000;stroke-width:0.03622132;stroke-miterlimit:4;stroke-dasharray:0.21732789,0.03622132;stroke-opacity:1;stroke-dashoffset:0"
       d="m 173.6661,204.88028 -0.78869,-29.90596 -2.55981,-29.20487 -15.79241,17.59348 -0.80024,0.89248 -0.7495,0.94323 -0.68952,0.987 -0.62959,1.01699 -0.58117,1.0447 -0.51655,1.07006 -0.45662,1.08388 -0.40119,1.09081 -0.34362,1.10464 -0.29052,1.10464 -0.24455,1.09771 -0.19591,1.09308 -0.12228,1.0839 -0.11291,1.05854 -0.0924,1.04697 -0.0482,1.00781 -5.02966,79.9029 15.26888,1.36986 1.14847,-2.72583 1.10463,-2.7397 1.06546,-2.75582 1.01467,-2.76506 0.96398,-2.76969 0.91323,-2.77197 0.4497,-1.41368 0.45662,-1.48512 0.45889,-1.5451 0.46586,-1.59817 0.45894,-1.60968 0.45889,-1.64658 0.88325,-3.35314 0.81639,-3.28851 0.79328,-3.34855 0.73567,-3.35542 0.71724,-3.37848 0.678,-3.42923 0.62955,-3.49608 0.51195,-3.4984 z"
       id="polygon0-13"
       inkscape:connector-curvature="0" />
    <path
       id="polygon0-7-4"
       d="m 51.763941,38.926891 13.827226,-21.909928 22.985852,41.911415 0.645335,1.11255 0.598631,1.141566 0.592652,1.151687 0.550522,1.170034 0.543774,1.177526 0.505586,1.190471 0.498565,1.196763 0.462824,1.206718 0.455938,1.212419 0.421284,1.220377 0.41449,1.225541 0.380515,1.231843 0.374172,1.236561 0.339746,1.241343 0.332498,1.245626 0.311207,1.251079 0.286744,1.254547 0.267267,1.256523 0.246428,1.257806 0.225138,1.257858 0.203846,1.256285 0.183011,1.252953 0.163078,1.247675 0.144051,1.240183 0.127292,1.230363 0.114153,1.21837 0.106001,1.204566 0.10736,1.190068 0.122762,1.177308 0.161718,1.16963 0.237822,1.171813 0.350621,1.197705 1.7968,160.563705 -8.763893,0.26015 -8.787717,0.25706 -17.493895,0.78187 -6.586797,-80.73733 -0.18392,-1.16134 -0.235099,-1.15442 -0.287199,-1.14508 -0.338839,-1.13339 -0.39093,-1.11916 -0.442128,-1.10229 -0.49277,-1.08297 -0.54295,-1.06107 -0.592476,-1.03645 -0.641165,-1.00944 -0.689096,-0.98001 -0.73625,-0.94802 -0.782638,-0.91331 -0.828394,-0.87563 -0.873363,-0.83467 -0.917996,-0.78965 -18.8598,-16.73129 4.84925,-65.495513 0.373714,-1.390345 0.352431,-1.385076 0.338387,-1.37982 0.330236,-1.374822 0.326602,-1.369989 0.327064,-1.365406 0.330235,-1.360986 0.336119,-1.356609 0.34428,-1.352232 0.354238,-1.347782 0.365562,-1.343127 0.378251,-1.338272 0.392296,-1.33314 0.407694,-1.327645 0.423546,-1.321892 0.440311,-1.315652 0.458159,-1.308904 0.476508,-1.301723 0.495207,-1.294087 0.514461,-1.28588 0.534042,-1.277178 0.553968,-1.267895 0.574168,-1.257899 0.594641,-1.247148 0.615261,-1.235537 0.636091,-1.222912 0.656974,-1.209212 0.678003,-1.194041 0.699096,-1.177309 0.720263,-1.15834 0.741638,-1.136745 z"
       style="fill:#ffffff;stroke:#000000;stroke-width:0.03649295;stroke-miterlimit:4;stroke-dasharray:0.21895771,0.03649295;stroke-opacity:1;stroke-dashoffset:0"
       inkscape:connector-curvature="0" />
    <path
       inkscape:connector-curvature="0"
       style="fill:#ffffff;stroke:#000000;stroke-width:0.03622132;stroke-miterlimit:4;stroke-dasharray:0.21732789,0.03622132;stroke-opacity:1;stroke-dashoffset:0"
       d="m 28.03303,204.88223 0.788686,-29.90596 2.559819,-29.20487 15.792394,17.59352 0.800245,0.89244 0.749497,0.94323 0.689528,0.98704 0.629591,1.01699 0.58112,1.04466 0.516597,1.07006 0.456619,1.08388 0.401194,1.09081 0.343615,1.10464 0.290519,1.10464 0.244561,1.09771 0.195904,1.09308 0.122275,1.0839 0.112911,1.05854 0.09241,1.04697 0.04864,1.00775 5.02967,79.903 -15.268936,1.36982 -1.148465,-2.72583 -1.10463,-2.7397 -1.06542,-2.75582 -1.014714,-2.76506 -0.963975,-2.76965 -0.913187,-2.77201 -0.449706,-1.41364 -0.456619,-1.48516 -0.458937,-1.5451 -0.46585,-1.59817 -0.458895,-1.60968 -0.458937,-1.64658 -0.883249,-3.35309 -0.816347,-3.28856 -0.793332,-3.34851 -0.735661,-3.35542 -0.717189,-3.37848 -0.678011,-3.42923 -0.629591,-3.49612 -0.511951,-3.4984 z"
       id="polygon0-13-8" />
  </g>
</svg>
