<svg  version="1.0"  id="Layer_1" xmlns="http://www.w3.org/2000/svg"   xmlns:xlink="http://www.w3.org/1999/xlink" x="0px" y="0px"  viewBox="-235.1 -325.1 612 792" style="enable-background:new -235.1 -325.1 612 792;" xml:space="preserve">
<path transform="translate(0.0,0.0)" style="fill:#ffffff;stroke-width:1;stroke:#000000;stroke-opacity:1" d="M -235.86841,-33.128899 -238.83202,-33.561859 -241.80334,-33.943905 -267.13159,-33.276131 -291.86569,-31.108753 -276.96582,-17.733786 -276.20886,-17.057077 -275.4104,-16.421446 -274.57458,-15.838244 -273.71353,-15.304291 -272.82785,-14.811239 -271.92142,-14.374512 -271.00415,-13.987599 -270.08008,-13.647652 -269.14444,-13.357125 -268.20972,-13.111246 -267.27917,-12.905166 -266.35361,-12.738023 -265.43527,-12.633622 -264.5394,-12.538725 -263.65176,-12.460076 -262.79971,-12.419355 -195.12772,-8.1600323 -193.96614,-21.092268 -196.27538,-22.063745 -198.59586,-23.000549 -200.92905,-23.902998 -203.27095,-24.761068 -205.61755,-25.577026 -207.96521,-26.351536 -209.16295,-26.731705 -210.42024,-27.118547 -211.72902,-27.508177 -213.08282,-27.902231 -214.44469,-28.291328 -215.83969,-28.678493 -218.68068,-29.428478 -221.46535,-30.119102 -224.30154,-30.79129 -227.14223,-31.41375 -230.00415,-32.020794 -232.90796,-32.595707  Z" id="polygon0" />
</svg>
