<svg  version="1.0"  id="Layer_1" xmlns="http://www.w3.org/2000/svg"   xmlns:xlink="http://www.w3.org/1999/xlink" x="0px" y="0px"  viewBox="-235.1 -325.1 612 792" style="enable-background:new -235.1 -325.1 612 792;" xml:space="preserve">
<path transform="translate(0.0,0.0)" style="fill:#ffffff;stroke-width:1;stroke:#000000;stroke-opacity:1" d="M -243.64491,16.341072 -262.20145,27.877708 -226.70471,47.05584 -225.76247,47.594269 -224.79561,48.093739 -223.82021,48.588219 -222.82924,49.047558 -221.83192,49.501236 -220.82368,49.92305 -219.81006,50.339027 -218.78804,50.725197 -217.7612,51.105591 -216.72762,51.457207 -215.68965,51.803226 -214.64632,52.120792 -213.59901,52.432865 -212.54768,52.716442 -211.49269,52.994015 -210.43311,53.253502 -209.37057,53.492832 -208.30638,53.715881 -207.24106,53.921444 -206.17572,54.109196 -205.11171,54.279228 -204.05054,54.431866 -202.99382,54.567757 -201.94347,54.687946 -200.9014,54.794186 -199.86952,54.889313 -198.84932,54.977955 -197.84138,55.067535 -196.84428,55.170006 -195.85367,55.30492 -194.86119,55.503395 -193.84679,55.796116 -57.857971,57.295292 -57.637428,49.983177 -57.419884,42.651199 -56.757679,28.055256 -125.13787,22.559603 -126.12144,22.406069 -127.09916,22.209785 -128.06902,21.970257 -129.02892,21.687407 -129.97678,21.361423 -130.91039,20.992638 -131.82761,20.581491 -132.72624,20.128477 -133.60408,19.634172 -134.45903,19.099226 -135.28905,18.524281 -136.09196,17.909988 -136.86548,17.256981 -137.6071,16.565847 -138.31401,15.837119 -138.9828,15.071229 -153.15331,-0.66437155 -208.6245,3.3815744 -209.80205,3.693325 -210.97514,3.9872468 -212.14378,4.2694626 -213.30817,4.5448642 -214.46848,4.8173718 -215.62491,5.0901356 -216.77759,5.3657284 -217.92656,5.6462765 -219.07184,5.9335494 -220.21333,6.2290602 -221.35089,6.5341034 -222.48431,6.8498178 -223.61343,7.1772017 -224.73787,7.5171642 -225.85744,7.8705182 -226.97173,8.2380276 -228.08031,8.6203175 -229.18279,9.0178576 -230.27879,9.4310617 -231.36789,9.8602953 -232.44957,10.305877 -233.52341,10.768074 -234.58879,11.247133 -235.64503,11.743253 -236.69148,12.256595 -237.72723,12.787296 -238.75136,13.335458 -239.76266,13.901152 -240.75975,14.484438 -241.74083,15.085395 -242.70358,15.704169  Z" id="polygon0" />
</svg>
